<svg width="20" height="20" viewBox="0 0 20 20" fill="none" xmlns="http://www.w3.org/2000/svg">
<path d="M16.0675 15.1822C16.1256 15.2403 16.1717 15.3092 16.2031 15.3851C16.2345 15.4609 16.2507 15.5422 16.2507 15.6244C16.2507 15.7065 16.2345 15.7878 16.2031 15.8637C16.1717 15.9396 16.1256 16.0085 16.0675 16.0666C16.0095 16.1246 15.9405 16.1707 15.8647 16.2021C15.7888 16.2335 15.7075 16.2497 15.6253 16.2497C15.5432 16.2497 15.4619 16.2335 15.386 16.2021C15.3102 16.1707 15.2412 16.1246 15.1832 16.0666L10.0003 10.883L4.81753 16.0666C4.70026 16.1838 4.5412 16.2497 4.37535 16.2497C4.2095 16.2497 4.05044 16.1838 3.93316 16.0666C3.81588 15.9493 3.75 15.7902 3.75 15.6244C3.75 15.4585 3.81588 15.2995 3.93316 15.1822L9.11675 9.99937L3.93316 4.81656C3.81588 4.69928 3.75 4.54022 3.75 4.37437C3.75 4.20852 3.81588 4.04946 3.93316 3.93218C4.05044 3.81491 4.2095 3.74902 4.37535 3.74902C4.5412 3.74902 4.70026 3.81491 4.81753 3.93218L10.0003 9.11578L15.1832 3.93218C15.3004 3.81491 15.4595 3.74902 15.6253 3.74902C15.7912 3.74902 15.9503 3.81491 16.0675 3.93218C16.1848 4.04946 16.2507 4.20852 16.2507 4.37437C16.2507 4.54022 16.1848 4.69928 16.0675 4.81656L10.8839 9.99937L16.0675 15.1822Z" fill="#3C3D45"/>
</svg>
